<mxfile host="Electron" agent="Mozilla/5.0 (Windows NT 10.0; Win64; x64) AppleWebKit/537.36 (KHTML, like Gecko) draw.io/28.0.4 Chrome/138.0.7204.97 Electron/37.2.1 Safari/537.36" version="28.0.4">
  <diagram name="Страница — 1" id="M2Gi3PdnA-fKalH7xogJ">
    <mxGraphModel dx="1042" dy="730" grid="1" gridSize="10" guides="1" tooltips="1" connect="1" arrows="1" fold="1" page="1" pageScale="1" pageWidth="827" pageHeight="1169" math="0" shadow="0">
      <root>
        <mxCell id="0" />
        <mxCell id="1" parent="0" />
        <mxCell id="4aHkPI6Iks6waSPW11ia-1" value="Почтовый&lt;div&gt;сервер&lt;/div&gt;" style="whiteSpace=wrap;html=1;aspect=fixed;fillColor=#dae8fc;strokeColor=#6c8ebf;" parent="1" vertex="1">
          <mxGeometry x="40" y="100" width="80" height="80" as="geometry" />
        </mxCell>
        <mxCell id="4aHkPI6Iks6waSPW11ia-4" value="Q3" style="rounded=0;whiteSpace=wrap;html=1;fillColor=#fff2cc;strokeColor=#d6b656;" parent="1" vertex="1">
          <mxGeometry x="129" y="20" width="611" height="60" as="geometry" />
        </mxCell>
        <mxCell id="4aHkPI6Iks6waSPW11ia-5" value="" style="rounded=0;whiteSpace=wrap;html=1;fillColor=#f5f5f5;fontColor=#333333;strokeColor=#666666;" parent="1" vertex="1">
          <mxGeometry x="130" y="100" width="610" height="80" as="geometry" />
        </mxCell>
        <mxCell id="4aHkPI6Iks6waSPW11ia-6" value="" style="rounded=0;whiteSpace=wrap;html=1;fillColor=#f5f5f5;fontColor=#333333;strokeColor=#666666;" parent="1" vertex="1">
          <mxGeometry x="130" y="200" width="610" height="200" as="geometry" />
        </mxCell>
        <mxCell id="4aHkPI6Iks6waSPW11ia-7" value="" style="rounded=0;whiteSpace=wrap;html=1;fillColor=#f5f5f5;fontColor=#333333;strokeColor=#666666;" parent="1" vertex="1">
          <mxGeometry x="130" y="420" width="610" height="120" as="geometry" />
        </mxCell>
        <mxCell id="4aHkPI6Iks6waSPW11ia-18" value="MT1" style="rounded=0;whiteSpace=wrap;html=1;fillColor=#ffe6cc;strokeColor=#d79b00;" parent="1" vertex="1">
          <mxGeometry x="170" y="110" width="120" height="30" as="geometry" />
        </mxCell>
        <mxCell id="4aHkPI6Iks6waSPW11ia-19" value="MT2" style="rounded=0;whiteSpace=wrap;html=1;fillColor=#ffe6cc;strokeColor=#d79b00;" parent="1" vertex="1">
          <mxGeometry x="350" y="140" width="186" height="30" as="geometry" />
        </mxCell>
        <mxCell id="4aHkPI6Iks6waSPW11ia-20" value="DT1" style="rounded=0;whiteSpace=wrap;html=1;fillColor=#ffe6cc;strokeColor=#d79b00;" parent="1" vertex="1">
          <mxGeometry x="170" y="210" width="150" height="30" as="geometry" />
        </mxCell>
        <mxCell id="4aHkPI6Iks6waSPW11ia-21" value="DT2" style="rounded=0;whiteSpace=wrap;html=1;fillColor=#ffe6cc;strokeColor=#d79b00;" parent="1" vertex="1">
          <mxGeometry x="170" y="250" width="170" height="30" as="geometry" />
        </mxCell>
        <mxCell id="4aHkPI6Iks6waSPW11ia-22" value="DT3" style="rounded=0;whiteSpace=wrap;html=1;fillColor=#ffe6cc;strokeColor=#d79b00;" parent="1" vertex="1">
          <mxGeometry x="322" y="284" width="270" height="30" as="geometry" />
        </mxCell>
        <mxCell id="4aHkPI6Iks6waSPW11ia-23" value="DT4" style="rounded=0;whiteSpace=wrap;html=1;fillColor=#ffe6cc;strokeColor=#d79b00;" parent="1" vertex="1">
          <mxGeometry x="344" y="322" width="236" height="30" as="geometry" />
        </mxCell>
        <mxCell id="4aHkPI6Iks6waSPW11ia-24" value="CT1" style="rounded=0;whiteSpace=wrap;html=1;fillColor=#ffe6cc;strokeColor=#d79b00;" parent="1" vertex="1">
          <mxGeometry x="170" y="430" width="130" height="30" as="geometry" />
        </mxCell>
        <mxCell id="4aHkPI6Iks6waSPW11ia-25" value="CT2" style="rounded=0;whiteSpace=wrap;html=1;fillColor=#ffe6cc;strokeColor=#d79b00;" parent="1" vertex="1">
          <mxGeometry x="344" y="465" width="186" height="30" as="geometry" />
        </mxCell>
        <mxCell id="4aHkPI6Iks6waSPW11ia-26" value="CT3" style="rounded=0;whiteSpace=wrap;html=1;fillColor=#ffe6cc;strokeColor=#d79b00;" parent="1" vertex="1">
          <mxGeometry x="344" y="503" width="166" height="30" as="geometry" />
        </mxCell>
        <mxCell id="4aHkPI6Iks6waSPW11ia-28" value="Система по работе с депозитами" style="rounded=0;whiteSpace=wrap;html=1;fillColor=#dae8fc;strokeColor=#6c8ebf;" parent="1" vertex="1">
          <mxGeometry x="40" y="200" width="80" height="200" as="geometry" />
        </mxCell>
        <mxCell id="4aHkPI6Iks6waSPW11ia-29" value="Система кол-центра" style="rounded=0;whiteSpace=wrap;html=1;fillColor=#dae8fc;strokeColor=#6c8ebf;" parent="1" vertex="1">
          <mxGeometry x="40" y="420" width="80" height="120" as="geometry" />
        </mxCell>
        <mxCell id="4aHkPI6Iks6waSPW11ia-30" value="DT5" style="rounded=0;whiteSpace=wrap;html=1;fillColor=#ffe6cc;strokeColor=#d79b00;" parent="1" vertex="1">
          <mxGeometry x="340" y="360" width="110" height="30" as="geometry" />
        </mxCell>
      </root>
    </mxGraphModel>
  </diagram>
</mxfile>
